<svg xmlns="http://www.w3.org/2000/svg" xmlns:xlink="http://www.w3.org/1999/xlink" contentStyleType="text/css" height="723px" preserveAspectRatio="none" style="width:846px;height:723px;background:#FFFFFF;" version="1.1" viewBox="0 0 846 723" width="846px" zoomAndPan="magnify"><defs/><g><!--entity User--><g id="elem_User"><ellipse cx="578.9551" cy="14" fill="#F1F1F1" rx="8" ry="8" style="stroke:#181818;stroke-width:0.5;"/><path d="M578.9551,22 L578.9551,49 M565.9551,30 L591.9551,30 M578.9551,49 L565.9551,64 M578.9551,49 L591.9551,64 " fill="none" style="stroke:#181818;stroke-width:0.5;"/><text fill="#000000" font-family="sans-serif" font-size="14" lengthAdjust="spacing" textLength="31.9102" x="563" y="78.4951">User</text></g><!--entity Browser--><g id="elem_Browser"><polygon fill="#F1F1F1" points="512.5,151.5,522.5,141.5,645.332,141.5,645.332,177.7969,635.332,187.7969,512.5,187.7969,512.5,151.5" style="stroke:#181818;stroke-width:0.5;"/><line style="stroke:#181818;stroke-width:0.5;" x1="635.332" x2="645.332" y1="151.5" y2="141.5"/><line style="stroke:#181818;stroke-width:0.5;" x1="512.5" x2="635.332" y1="151.5" y2="151.5"/><line style="stroke:#181818;stroke-width:0.5;" x1="635.332" x2="635.332" y1="151.5" y2="187.7969"/><text fill="#000000" font-family="sans-serif" font-size="14" lengthAdjust="spacing" textLength="92.832" x="527.5" y="174.4951">Web Browser</text></g><!--entity Frontend--><g id="elem_Frontend"><rect fill="#F1F1F1" height="46.2969" rx="2.5" ry="2.5" style="stroke:#181818;stroke-width:0.5;" width="207.4395" x="475.5" y="247.5"/><rect fill="#F1F1F1" height="10" style="stroke:#181818;stroke-width:0.5;" width="15" x="662.9395" y="252.5"/><rect fill="#F1F1F1" height="2" style="stroke:#181818;stroke-width:0.5;" width="4" x="660.9395" y="254.5"/><rect fill="#F1F1F1" height="2" style="stroke:#181818;stroke-width:0.5;" width="4" x="660.9395" y="258.5"/><text fill="#000000" font-family="sans-serif" font-size="14" lengthAdjust="spacing" textLength="167.4395" x="490.5" y="280.4951">Frontend (HTML/CSS/JS)</text></g><!--entity Flask--><g id="elem_Flask"><rect fill="#F1F1F1" height="46.2969" rx="2.5" ry="2.5" style="stroke:#181818;stroke-width:0.5;" width="162.0762" x="498" y="353.5"/><rect fill="#F1F1F1" height="10" style="stroke:#181818;stroke-width:0.5;" width="15" x="640.0762" y="358.5"/><rect fill="#F1F1F1" height="2" style="stroke:#181818;stroke-width:0.5;" width="4" x="638.0762" y="360.5"/><rect fill="#F1F1F1" height="2" style="stroke:#181818;stroke-width:0.5;" width="4" x="638.0762" y="364.5"/><text fill="#000000" font-family="sans-serif" font-size="14" lengthAdjust="spacing" textLength="122.0762" x="513" y="386.4951">Flask Web Server</text></g><!--entity FAQHandler--><g id="elem_FAQHandler"><rect fill="#F1F1F1" height="46.2969" rx="2.5" ry="2.5" style="stroke:#181818;stroke-width:0.5;" width="128.2246" x="298" y="459.5"/><rect fill="#F1F1F1" height="10" style="stroke:#181818;stroke-width:0.5;" width="15" x="406.2246" y="464.5"/><rect fill="#F1F1F1" height="2" style="stroke:#181818;stroke-width:0.5;" width="4" x="404.2246" y="466.5"/><rect fill="#F1F1F1" height="2" style="stroke:#181818;stroke-width:0.5;" width="4" x="404.2246" y="470.5"/><text fill="#000000" font-family="sans-serif" font-size="14" lengthAdjust="spacing" textLength="88.2246" x="313" y="492.4951">FAQ Handler</text></g><!--entity RasaNLU--><g id="elem_RasaNLU"><rect fill="#F1F1F1" height="46.2969" rx="2.5" ry="2.5" style="stroke:#181818;stroke-width:0.5;" width="107.1494" x="525.5" y="459.5"/><rect fill="#F1F1F1" height="10" style="stroke:#181818;stroke-width:0.5;" width="15" x="612.6494" y="464.5"/><rect fill="#F1F1F1" height="2" style="stroke:#181818;stroke-width:0.5;" width="4" x="610.6494" y="466.5"/><rect fill="#F1F1F1" height="2" style="stroke:#181818;stroke-width:0.5;" width="4" x="610.6494" y="470.5"/><text fill="#000000" font-family="sans-serif" font-size="14" lengthAdjust="spacing" textLength="67.1494" x="540.5" y="492.4951">Rasa NLU</text></g><!--entity OtherRoutes--><g id="elem_OtherRoutes"><rect fill="#F1F1F1" height="46.2969" rx="2.5" ry="2.5" style="stroke:#181818;stroke-width:0.5;" width="173.1367" x="667.5" y="459.5"/><rect fill="#F1F1F1" height="10" style="stroke:#181818;stroke-width:0.5;" width="15" x="820.6367" y="464.5"/><rect fill="#F1F1F1" height="2" style="stroke:#181818;stroke-width:0.5;" width="4" x="818.6367" y="466.5"/><rect fill="#F1F1F1" height="2" style="stroke:#181818;stroke-width:0.5;" width="4" x="818.6367" y="470.5"/><text fill="#000000" font-family="sans-serif" font-size="14" lengthAdjust="spacing" textLength="133.1367" x="682.5" y="492.4951">Other Flask Routes</text></g><!--entity DB--><g id="elem_DB"><path d="M710.5,576 C710.5,566 753.9004,566 753.9004,566 C753.9004,566 797.3008,566 797.3008,576 L797.3008,601.2969 C797.3008,611.2969 753.9004,611.2969 753.9004,611.2969 C753.9004,611.2969 710.5,611.2969 710.5,601.2969 L710.5,576 " fill="#F1F1F1" style="stroke:#181818;stroke-width:0.5;"/><path d="M710.5,576 C710.5,586 753.9004,586 753.9004,586 C753.9004,586 797.3008,586 797.3008,576 " fill="none" style="stroke:#181818;stroke-width:0.5;"/><text fill="#000000" font-family="sans-serif" font-size="14" lengthAdjust="spacing" textLength="66.8008" x="720.5" y="602.9951">Database</text></g><!--entity SentenceTransformer--><g id="elem_SentenceTransformer"><rect fill="#F1F1F1" height="46.2969" rx="2.5" ry="2.5" style="stroke:#181818;stroke-width:0.5;" width="196.4199" x="7" y="565.5"/><rect fill="#F1F1F1" height="10" style="stroke:#181818;stroke-width:0.5;" width="15" x="183.4199" y="570.5"/><rect fill="#F1F1F1" height="2" style="stroke:#181818;stroke-width:0.5;" width="4" x="181.4199" y="572.5"/><rect fill="#F1F1F1" height="2" style="stroke:#181818;stroke-width:0.5;" width="4" x="181.4199" y="576.5"/><text fill="#000000" font-family="sans-serif" font-size="14" lengthAdjust="spacing" textLength="156.4199" x="22" y="598.4951">Sentence Transformer</text></g><!--entity Faiss--><g id="elem_Faiss"><rect fill="#F1F1F1" height="46.2969" rx="2.5" ry="2.5" style="stroke:#181818;stroke-width:0.5;" width="118.3467" x="238" y="565.5"/><rect fill="#F1F1F1" height="10" style="stroke:#181818;stroke-width:0.5;" width="15" x="336.3467" y="570.5"/><rect fill="#F1F1F1" height="2" style="stroke:#181818;stroke-width:0.5;" width="4" x="334.3467" y="572.5"/><rect fill="#F1F1F1" height="2" style="stroke:#181818;stroke-width:0.5;" width="4" x="334.3467" y="576.5"/><text fill="#000000" font-family="sans-serif" font-size="14" lengthAdjust="spacing" textLength="78.3467" x="253" y="598.4951">Faiss Index</text></g><!--entity OpenAI--><g id="elem_OpenAI"><rect fill="#F1F1F1" height="46.2969" rx="2.5" ry="2.5" style="stroke:#181818;stroke-width:0.5;" width="117.6973" x="391" y="565.5"/><rect fill="#F1F1F1" height="10" style="stroke:#181818;stroke-width:0.5;" width="15" x="488.6973" y="570.5"/><rect fill="#F1F1F1" height="2" style="stroke:#181818;stroke-width:0.5;" width="4" x="486.6973" y="572.5"/><rect fill="#F1F1F1" height="2" style="stroke:#181818;stroke-width:0.5;" width="4" x="486.6973" y="576.5"/><text fill="#000000" font-family="sans-serif" font-size="14" lengthAdjust="spacing" textLength="77.6973" x="406" y="598.4951">OpenAI API</text></g><!--entity RasaCore--><g id="elem_RasaCore"><rect fill="#F1F1F1" height="46.2969" rx="2.5" ry="2.5" style="stroke:#181818;stroke-width:0.5;" width="111.3398" x="544.5" y="565.5"/><rect fill="#F1F1F1" height="10" style="stroke:#181818;stroke-width:0.5;" width="15" x="635.8398" y="570.5"/><rect fill="#F1F1F1" height="2" style="stroke:#181818;stroke-width:0.5;" width="4" x="633.8398" y="572.5"/><rect fill="#F1F1F1" height="2" style="stroke:#181818;stroke-width:0.5;" width="4" x="633.8398" y="576.5"/><text fill="#000000" font-family="sans-serif" font-size="14" lengthAdjust="spacing" textLength="71.3398" x="559.5" y="598.4951">Rasa Core</text></g><!--entity SQLAlchemy--><g id="elem_SQLAlchemy"><rect fill="#F1F1F1" height="46.2969" rx="2.5" ry="2.5" style="stroke:#181818;stroke-width:0.5;" width="128.2793" x="690" y="671.5"/><rect fill="#F1F1F1" height="10" style="stroke:#181818;stroke-width:0.5;" width="15" x="798.2793" y="676.5"/><rect fill="#F1F1F1" height="2" style="stroke:#181818;stroke-width:0.5;" width="4" x="796.2793" y="678.5"/><rect fill="#F1F1F1" height="2" style="stroke:#181818;stroke-width:0.5;" width="4" x="796.2793" y="682.5"/><text fill="#000000" font-family="sans-serif" font-size="14" lengthAdjust="spacing" textLength="88.2793" x="705" y="704.4951">SQLAlchemy</text></g><!--link User to Browser--><g id="link_User_Browser"><path d="M579,81.5 C579,101.15 579,118.64 579,135.43 " fill="none" id="User-to-Browser" style="stroke:#181818;stroke-width:1.0;"/><polygon fill="#181818" points="579,141.43,583,132.43,579,136.43,575,132.43,579,141.43" style="stroke:#181818;stroke-width:1.0;"/></g><!--link Browser to Frontend--><g id="link_Browser_Frontend"><path d="M579,187.56 C579,205.2 579,223.84 579,241.48 " fill="none" id="Browser-to-Frontend" style="stroke:#181818;stroke-width:1.0;"/><polygon fill="#181818" points="579,247.48,583,238.48,579,242.48,575,238.48,579,247.48" style="stroke:#181818;stroke-width:1.0;"/></g><!--link Frontend to Flask--><g id="link_Frontend_Flask"><path d="M579,293.56 C579,311.2 579,329.84 579,347.48 " fill="none" id="Frontend-to-Flask" style="stroke:#181818;stroke-width:1.0;"/><polygon fill="#181818" points="579,353.48,583,344.48,579,348.48,575,344.48,579,353.48" style="stroke:#181818;stroke-width:1.0;"/></g><!--link Flask to FAQHandler--><g id="link_Flask_FAQHandler"><path d="M532.98,399.56 C496.15,417.2 450.1708,439.2471 413.3608,456.8871 " fill="none" id="Flask-to-FAQHandler" style="stroke:#181818;stroke-width:1.0;"/><polygon fill="#181818" points="407.95,459.48,417.7948,459.1978,412.459,457.3192,414.3376,451.9834,407.95,459.48" style="stroke:#181818;stroke-width:1.0;"/></g><!--link Flask to RasaNLU--><g id="link_Flask_RasaNLU"><path d="M579,399.56 C579,417.2 579,435.84 579,453.48 " fill="none" id="Flask-to-RasaNLU" style="stroke:#181818;stroke-width:1.0;"/><polygon fill="#181818" points="579,459.48,583,450.48,579,454.48,575,450.48,579,459.48" style="stroke:#181818;stroke-width:1.0;"/></g><!--link Flask to OtherRoutes--><g id="link_Flask_OtherRoutes"><path d="M616.11,399.56 C645.81,417.2 682.1022,438.7745 711.7822,456.4145 " fill="none" id="Flask-to-OtherRoutes" style="stroke:#181818;stroke-width:1.0;"/><polygon fill="#181818" points="716.94,459.48,711.247,451.4433,712.6418,456.9254,707.1597,458.3203,716.94,459.48" style="stroke:#181818;stroke-width:1.0;"/></g><!--link FAQHandler to SentenceTransformer--><g id="link_FAQHandler_SentenceTransformer"><path d="M307.5,505.56 C263.88,523.2 208.582,545.5897 164.982,563.2297 " fill="none" id="FAQHandler-to-SentenceTransformer" style="stroke:#181818;stroke-width:1.0;"/><polygon fill="#181818" points="159.42,565.48,169.2632,565.8125,164.055,563.6047,166.2628,558.3965,159.42,565.48" style="stroke:#181818;stroke-width:1.0;"/></g><!--link FAQHandler to Faiss--><g id="link_FAQHandler_Faiss"><path d="M348.22,505.56 C337.18,523.2 324.971,542.7527 313.941,560.3927 " fill="none" id="FAQHandler-to-Faiss" style="stroke:#181818;stroke-width:1.0;"/><polygon fill="#181818" points="310.76,565.48,318.9231,559.9697,313.4109,561.2405,312.14,555.7283,310.76,565.48" style="stroke:#181818;stroke-width:1.0;"/></g><!--link FAQHandler to OpenAI--><g id="link_FAQHandler_OpenAI"><path d="M380.66,505.56 C395.6,523.2 412.5653,543.2589 427.4853,560.8989 " fill="none" id="FAQHandler-to-OpenAI" style="stroke:#181818;stroke-width:1.0;"/><polygon fill="#181818" points="431.36,565.48,428.602,556.0252,428.1311,561.6624,422.4938,561.1915,431.36,565.48" style="stroke:#181818;stroke-width:1.0;"/></g><!--link RasaNLU to RasaCore--><g id="link_RasaNLU_RasaCore"><path d="M583.45,505.56 C587.02,523.2 590.803,541.9586 594.363,559.5986 " fill="none" id="RasaNLU-to-RasaCore" style="stroke:#181818;stroke-width:1.0;"/><polygon fill="#181818" points="595.55,565.48,597.6905,555.8666,594.5609,560.5788,589.8486,557.4492,595.55,565.48" style="stroke:#181818;stroke-width:1.0;"/></g><!--link OtherRoutes to DB--><g id="link_OtherRoutes_DB"><path d="M754,505.56 C754,523.32 754,542.17 754,559.83 " fill="none" id="OtherRoutes-to-DB" style="stroke:#181818;stroke-width:1.0;"/><polygon fill="#181818" points="754,565.83,758,556.83,754,560.83,750,556.83,754,565.83" style="stroke:#181818;stroke-width:1.0;"/></g><!--link DB to SQLAlchemy--><g id="link_DB_SQLAlchemy"><path d="M754,611.05 C754,628.66 754,647.47 754,665.26 " fill="none" id="DB-to-SQLAlchemy" style="stroke:#181818;stroke-width:1.0;"/><polygon fill="#181818" points="754,671.26,758,662.26,754,666.26,750,662.26,754,671.26" style="stroke:#181818;stroke-width:1.0;"/></g><!--SRC=[RL7BReCm4Bpp5IjExI7A7rI2e2fKz458rFC6DafLi2FRVVrzyTeOa_Q4PtROtPd5raW51qqg4R8ZI5_f2BcINoEJ0khfdRHok4X1ma1whwGm93gusUuVg_McQTOFpIshfz92tgD-1zkt8VNfspAvK6KrR55q_IJ8QWzZrGurmbDrO8a5upkkFvipATSSTlB3a6Obqmud7HeyeXwj5lx5aYAF-pHaRRG4UuL2dwGQ_5fJ8U8NBl1DQoX5Hz_EXSMB1IyaiXAobz8jnl2FmurK52nQiDYjhhA-FTFmupOAC4di7M6rkWjNyr_cmct2_PZbGxZ46C-vp-IKzCp4YSw_SEc_YAuaBfOhqcVXPuMvR3yQnuNnMaNkfWNxlm00]--></g></svg>