<svg xmlns="http://www.w3.org/2000/svg" xmlns:xlink="http://www.w3.org/1999/xlink" contentStyleType="text/css" height="999px" preserveAspectRatio="none" style="width:1219px;height:999px;background:#FFFFFF;" version="1.1" viewBox="0 0 1219 999" width="1219px" zoomAndPan="magnify"><defs/><g><!--cluster Security--><g id="cluster_Security"><rect fill="none" height="189.72" rx="2.5" ry="2.5" style="stroke:#181818;stroke-width:1.0;" width="581" x="257" y="457.5"/><rect fill="none" height="10" style="stroke:#181818;stroke-width:1.0;" width="15" x="818" y="462.5"/><rect fill="none" height="2" style="stroke:#181818;stroke-width:1.0;" width="4" x="816" y="464.5"/><rect fill="none" height="2" style="stroke:#181818;stroke-width:1.0;" width="4" x="816" y="468.5"/><text fill="#000000" font-family="sans-serif" font-size="14" font-weight="bold" lengthAdjust="spacing" textLength="114.1328" x="490.4336" y="483.4951">Security Layer</text></g><!--entity Auth--><g id="elem_Auth"><rect fill="#F1F1F1" height="46.2969" rx="2.5" ry="2.5" style="stroke:#181818;stroke-width:0.5;" width="142.7715" x="281.5" y="577.22"/><rect fill="#F1F1F1" height="10" style="stroke:#181818;stroke-width:0.5;" width="15" x="404.2715" y="582.22"/><rect fill="#F1F1F1" height="2" style="stroke:#181818;stroke-width:0.5;" width="4" x="402.2715" y="584.22"/><rect fill="#F1F1F1" height="2" style="stroke:#181818;stroke-width:0.5;" width="4" x="402.2715" y="588.22"/><text fill="#000000" font-family="sans-serif" font-size="14" lengthAdjust="spacing" textLength="102.7715" x="296.5" y="610.2151">Authentication</text></g><!--entity OTP--><g id="elem_OTP"><rect fill="#F1F1F1" height="46.2969" rx="2.5" ry="2.5" style="stroke:#181818;stroke-width:0.5;" width="152.2119" x="460" y="577.22"/><rect fill="#F1F1F1" height="10" style="stroke:#181818;stroke-width:0.5;" width="15" x="592.2119" y="582.22"/><rect fill="#F1F1F1" height="2" style="stroke:#181818;stroke-width:0.5;" width="4" x="590.2119" y="584.22"/><rect fill="#F1F1F1" height="2" style="stroke:#181818;stroke-width:0.5;" width="4" x="590.2119" y="588.22"/><text fill="#000000" font-family="sans-serif" font-size="14" lengthAdjust="spacing" textLength="112.2119" x="475" y="610.2151">OTP Verification</text></g><!--entity APIKey--><g id="elem_APIKey"><rect fill="#F1F1F1" height="46.2969" rx="2.5" ry="2.5" style="stroke:#181818;stroke-width:0.5;" width="167.3467" x="647.5" y="577.22"/><rect fill="#F1F1F1" height="10" style="stroke:#181818;stroke-width:0.5;" width="15" x="794.8467" y="582.22"/><rect fill="#F1F1F1" height="2" style="stroke:#181818;stroke-width:0.5;" width="4" x="792.8467" y="584.22"/><rect fill="#F1F1F1" height="2" style="stroke:#181818;stroke-width:0.5;" width="4" x="792.8467" y="588.22"/><text fill="#000000" font-family="sans-serif" font-size="14" lengthAdjust="spacing" textLength="127.3467" x="662.5" y="610.2151">API Key Validation</text></g><!--entity User--><g id="elem_User"><ellipse cx="804.9551" cy="14" fill="#F1F1F1" rx="8" ry="8" style="stroke:#181818;stroke-width:0.5;"/><path d="M804.9551,22 L804.9551,49 M791.9551,30 L817.9551,30 M804.9551,49 L791.9551,64 M804.9551,49 L817.9551,64 " fill="none" style="stroke:#181818;stroke-width:0.5;"/><text fill="#000000" font-family="sans-serif" font-size="14" lengthAdjust="spacing" textLength="31.9102" x="789" y="78.4951">User</text></g><!--entity Browser--><g id="elem_Browser"><polygon fill="#F1F1F1" points="738.5,152.5,748.5,142.5,871.332,142.5,871.332,178.7969,861.332,188.7969,738.5,188.7969,738.5,152.5" style="stroke:#181818;stroke-width:0.5;"/><line style="stroke:#181818;stroke-width:0.5;" x1="861.332" x2="871.332" y1="152.5" y2="142.5"/><line style="stroke:#181818;stroke-width:0.5;" x1="738.5" x2="861.332" y1="152.5" y2="152.5"/><line style="stroke:#181818;stroke-width:0.5;" x1="861.332" x2="861.332" y1="152.5" y2="188.7969"/><text fill="#000000" font-family="sans-serif" font-size="14" lengthAdjust="spacing" textLength="92.832" x="753.5" y="175.4951">Web Browser</text></g><!--entity Frontend--><g id="elem_Frontend"><rect fill="#F1F1F1" height="46.2969" rx="2.5" ry="2.5" style="stroke:#181818;stroke-width:0.5;" width="207.4395" x="701.5" y="249.5"/><rect fill="#F1F1F1" height="10" style="stroke:#181818;stroke-width:0.5;" width="15" x="888.9395" y="254.5"/><rect fill="#F1F1F1" height="2" style="stroke:#181818;stroke-width:0.5;" width="4" x="886.9395" y="256.5"/><rect fill="#F1F1F1" height="2" style="stroke:#181818;stroke-width:0.5;" width="4" x="886.9395" y="260.5"/><text fill="#000000" font-family="sans-serif" font-size="14" lengthAdjust="spacing" textLength="167.4395" x="716.5" y="282.4951">Frontend (HTML/CSS/JS)</text></g><!--entity Flask--><g id="elem_Flask"><rect fill="#F1F1F1" height="46.2969" rx="2.5" ry="2.5" style="stroke:#181818;stroke-width:0.5;" width="162.0762" x="724" y="356.5"/><rect fill="#F1F1F1" height="10" style="stroke:#181818;stroke-width:0.5;" width="15" x="866.0762" y="361.5"/><rect fill="#F1F1F1" height="2" style="stroke:#181818;stroke-width:0.5;" width="4" x="864.0762" y="363.5"/><rect fill="#F1F1F1" height="2" style="stroke:#181818;stroke-width:0.5;" width="4" x="864.0762" y="367.5"/><text fill="#000000" font-family="sans-serif" font-size="14" lengthAdjust="spacing" textLength="122.0762" x="739" y="389.4951">Flask Web Server</text></g><!--entity FAQHandler--><g id="elem_FAQHandler"><rect fill="#F1F1F1" height="46.2969" rx="2.5" ry="2.5" style="stroke:#181818;stroke-width:0.5;" width="128.2246" x="239" y="733.22"/><rect fill="#F1F1F1" height="10" style="stroke:#181818;stroke-width:0.5;" width="15" x="347.2246" y="738.22"/><rect fill="#F1F1F1" height="2" style="stroke:#181818;stroke-width:0.5;" width="4" x="345.2246" y="740.22"/><rect fill="#F1F1F1" height="2" style="stroke:#181818;stroke-width:0.5;" width="4" x="345.2246" y="744.22"/><text fill="#000000" font-family="sans-serif" font-size="14" lengthAdjust="spacing" textLength="88.2246" x="254" y="766.2151">FAQ Handler</text></g><!--entity RasaNLU--><g id="elem_RasaNLU"><rect fill="#F1F1F1" height="46.2969" rx="2.5" ry="2.5" style="stroke:#181818;stroke-width:0.5;" width="107.1494" x="699.5" y="733.22"/><rect fill="#F1F1F1" height="10" style="stroke:#181818;stroke-width:0.5;" width="15" x="786.6494" y="738.22"/><rect fill="#F1F1F1" height="2" style="stroke:#181818;stroke-width:0.5;" width="4" x="784.6494" y="740.22"/><rect fill="#F1F1F1" height="2" style="stroke:#181818;stroke-width:0.5;" width="4" x="784.6494" y="744.22"/><text fill="#000000" font-family="sans-serif" font-size="14" lengthAdjust="spacing" textLength="67.1494" x="714.5" y="766.2151">Rasa NLU</text></g><!--entity OtherRoutes--><g id="elem_OtherRoutes"><rect fill="#F1F1F1" height="46.2969" rx="2.5" ry="2.5" style="stroke:#181818;stroke-width:0.5;" width="173.1367" x="445.5" y="733.22"/><rect fill="#F1F1F1" height="10" style="stroke:#181818;stroke-width:0.5;" width="15" x="598.6367" y="738.22"/><rect fill="#F1F1F1" height="2" style="stroke:#181818;stroke-width:0.5;" width="4" x="596.6367" y="740.22"/><rect fill="#F1F1F1" height="2" style="stroke:#181818;stroke-width:0.5;" width="4" x="596.6367" y="744.22"/><text fill="#000000" font-family="sans-serif" font-size="14" lengthAdjust="spacing" textLength="133.1367" x="460.5" y="766.2151">Other Flask Routes</text></g><!--entity DB--><g id="elem_DB"><path d="M544.5,850.72 C544.5,840.72 587.9004,840.72 587.9004,840.72 C587.9004,840.72 631.3008,840.72 631.3008,850.72 L631.3008,876.0169 C631.3008,886.0169 587.9004,886.0169 587.9004,886.0169 C587.9004,886.0169 544.5,886.0169 544.5,876.0169 L544.5,850.72 " fill="#F1F1F1" style="stroke:#181818;stroke-width:0.5;"/><path d="M544.5,850.72 C544.5,860.72 587.9004,860.72 587.9004,860.72 C587.9004,860.72 631.3008,860.72 631.3008,850.72 " fill="none" style="stroke:#181818;stroke-width:0.5;"/><text fill="#000000" font-family="sans-serif" font-size="14" lengthAdjust="spacing" textLength="66.8008" x="554.5" y="877.7151">Database</text></g><!--entity SentenceTransformer--><g id="elem_SentenceTransformer"><rect fill="#F1F1F1" height="46.2969" rx="2.5" ry="2.5" style="stroke:#181818;stroke-width:0.5;" width="196.4199" x="7" y="840.22"/><rect fill="#F1F1F1" height="10" style="stroke:#181818;stroke-width:0.5;" width="15" x="183.4199" y="845.22"/><rect fill="#F1F1F1" height="2" style="stroke:#181818;stroke-width:0.5;" width="4" x="181.4199" y="847.22"/><rect fill="#F1F1F1" height="2" style="stroke:#181818;stroke-width:0.5;" width="4" x="181.4199" y="851.22"/><text fill="#000000" font-family="sans-serif" font-size="14" lengthAdjust="spacing" textLength="156.4199" x="22" y="873.2151">Sentence Transformer</text></g><!--entity Faiss--><g id="elem_Faiss"><rect fill="#F1F1F1" height="46.2969" rx="2.5" ry="2.5" style="stroke:#181818;stroke-width:0.5;" width="118.3467" x="238" y="840.22"/><rect fill="#F1F1F1" height="10" style="stroke:#181818;stroke-width:0.5;" width="15" x="336.3467" y="845.22"/><rect fill="#F1F1F1" height="2" style="stroke:#181818;stroke-width:0.5;" width="4" x="334.3467" y="847.22"/><rect fill="#F1F1F1" height="2" style="stroke:#181818;stroke-width:0.5;" width="4" x="334.3467" y="851.22"/><text fill="#000000" font-family="sans-serif" font-size="14" lengthAdjust="spacing" textLength="78.3467" x="253" y="873.2151">Faiss Index</text></g><!--entity OpenAI--><g id="elem_OpenAI"><rect fill="#F1F1F1" height="46.2969" rx="2.5" ry="2.5" style="stroke:#181818;stroke-width:0.5;" width="117.6973" x="391" y="840.22"/><rect fill="#F1F1F1" height="10" style="stroke:#181818;stroke-width:0.5;" width="15" x="488.6973" y="845.22"/><rect fill="#F1F1F1" height="2" style="stroke:#181818;stroke-width:0.5;" width="4" x="486.6973" y="847.22"/><rect fill="#F1F1F1" height="2" style="stroke:#181818;stroke-width:0.5;" width="4" x="486.6973" y="851.22"/><text fill="#000000" font-family="sans-serif" font-size="14" lengthAdjust="spacing" textLength="77.6973" x="406" y="873.2151">OpenAI API</text></g><!--entity RasaCore--><g id="elem_RasaCore"><rect fill="#F1F1F1" height="46.2969" rx="2.5" ry="2.5" style="stroke:#181818;stroke-width:0.5;" width="111.3398" x="773.5" y="840.22"/><rect fill="#F1F1F1" height="10" style="stroke:#181818;stroke-width:0.5;" width="15" x="864.8398" y="845.22"/><rect fill="#F1F1F1" height="2" style="stroke:#181818;stroke-width:0.5;" width="4" x="862.8398" y="847.22"/><rect fill="#F1F1F1" height="2" style="stroke:#181818;stroke-width:0.5;" width="4" x="862.8398" y="851.22"/><text fill="#000000" font-family="sans-serif" font-size="14" lengthAdjust="spacing" textLength="71.3398" x="788.5" y="873.2151">Rasa Core</text></g><!--entity SQLAlchemy--><g id="elem_SQLAlchemy"><rect fill="#F1F1F1" height="46.2969" rx="2.5" ry="2.5" style="stroke:#181818;stroke-width:0.5;" width="128.2793" x="524" y="947.22"/><rect fill="#F1F1F1" height="10" style="stroke:#181818;stroke-width:0.5;" width="15" x="632.2793" y="952.22"/><rect fill="#F1F1F1" height="2" style="stroke:#181818;stroke-width:0.5;" width="4" x="630.2793" y="954.22"/><rect fill="#F1F1F1" height="2" style="stroke:#181818;stroke-width:0.5;" width="4" x="630.2793" y="958.22"/><text fill="#000000" font-family="sans-serif" font-size="14" lengthAdjust="spacing" textLength="88.2793" x="539" y="980.2151">SQLAlchemy</text></g><!--entity RasaActions--><g id="elem_RasaActions"><rect fill="#F1F1F1" height="46.2969" rx="2.5" ry="2.5" style="stroke:#181818;stroke-width:0.5;" width="130.0156" x="921" y="577.22"/><rect fill="#F1F1F1" height="10" style="stroke:#181818;stroke-width:0.5;" width="15" x="1031.0156" y="582.22"/><rect fill="#F1F1F1" height="2" style="stroke:#181818;stroke-width:0.5;" width="4" x="1029.0156" y="584.22"/><rect fill="#F1F1F1" height="2" style="stroke:#181818;stroke-width:0.5;" width="4" x="1029.0156" y="588.22"/><text fill="#000000" font-family="sans-serif" font-size="14" lengthAdjust="spacing" textLength="90.0156" x="936" y="610.2151">Rasa Actions</text></g><!--entity RasaModels--><g id="elem_RasaModels"><rect fill="#F1F1F1" height="46.2969" rx="2.5" ry="2.5" style="stroke:#181818;stroke-width:0.5;" width="127.958" x="1086" y="577.22"/><rect fill="#F1F1F1" height="10" style="stroke:#181818;stroke-width:0.5;" width="15" x="1193.958" y="582.22"/><rect fill="#F1F1F1" height="2" style="stroke:#181818;stroke-width:0.5;" width="4" x="1191.958" y="584.22"/><rect fill="#F1F1F1" height="2" style="stroke:#181818;stroke-width:0.5;" width="4" x="1191.958" y="588.22"/><text fill="#000000" font-family="sans-serif" font-size="14" lengthAdjust="spacing" textLength="87.958" x="1101" y="610.2151">Rasa Models</text></g><!--link User to Browser--><g id="link_User_Browser"><path d="M805,81.81 C805,101.63 805,119.31 805,136.25 " fill="none" id="User-to-Browser" style="stroke:#181818;stroke-width:1.0;"/><polygon fill="#181818" points="805,142.25,809,133.25,805,137.25,801,133.25,805,142.25" style="stroke:#181818;stroke-width:1.0;"/></g><!--link Browser to Frontend--><g id="link_Browser_Frontend"><path d="M805,188.51 C805,206.31 805,225.27 805,243.16 " fill="none" id="Browser-to-Frontend" style="stroke:#181818;stroke-width:1.0;"/><polygon fill="#181818" points="805,249.16,809,240.16,805,244.16,801,240.16,805,249.16" style="stroke:#181818;stroke-width:1.0;"/></g><!--link Frontend to Flask--><g id="link_Frontend_Flask"><path d="M805,295.51 C805,313.31 805,332.27 805,350.16 " fill="none" id="Frontend-to-Flask" style="stroke:#181818;stroke-width:1.0;"/><polygon fill="#181818" points="805,356.16,809,347.16,805,351.16,801,347.16,805,356.16" style="stroke:#181818;stroke-width:1.0;"/></g><!--link Flask to Security--><g id="link_Flask_Security"><path d="M805,402.67 C805,417.38 805,436.8875 805,453.0938 C805,454.1066 805,455.1066 805,456.0918 C805,456.338 805,456.5834 805,456.8278 C805,456.95 805,451.0719 805,451.1936 " fill="none" id="Flask-to-Security" style="stroke:#181818;stroke-width:1.0;"/><polygon fill="#181818" points="805,457.1936,809,448.1936,805,452.1936,801,448.1936,805,457.1936" style="stroke:#181818;stroke-width:1.0;"/></g><!--link Security to Auth--><g id="link_Security_Auth"><path d="M804.85,485.24 C798.58,486.04 596.59,511.94 442,561.22 C428.07,565.66 418.8447,569.106 405.4547,574.846 " fill="none" id="Security-to-Auth" style="stroke:#181818;stroke-width:1.0;"/><polygon fill="#181818" points="399.94,577.21,409.788,577.3404,404.5355,575.24,406.636,569.9875,399.94,577.21" style="stroke:#181818;stroke-width:1.0;"/></g><!--link Security to OTP--><g id="link_Security_OTP"><path d="M804.95,485.24 C801.99,486.5 670.9845,542.0191 593.6245,574.7991 " fill="none" id="Security-to-OTP" style="stroke:#181818;stroke-width:1.0;"/><polygon fill="#181818" points="588.1,577.14,597.9474,577.3116,592.7038,575.1892,594.8261,569.9456,588.1,577.14" style="stroke:#181818;stroke-width:1.0;"/></g><!--link Security to APIKey--><g id="link_Security_APIKey"><path d="M804.95,485.3 C803.35,487.76 769.7171,539.5775 748.6571,572.0175 " fill="none" id="Security-to-APIKey" style="stroke:#181818;stroke-width:1.0;"/><polygon fill="#181818" points="745.39,577.05,753.6456,571.6793,748.1126,572.8562,746.9356,567.3232,745.39,577.05" style="stroke:#181818;stroke-width:1.0;"/></g><!--link Auth to FAQHandler--><g id="link_Auth_FAQHandler"><path d="M345.84,623.28 C336.33,652.56 321.5028,698.2333 312.0028,727.4933 " fill="none" id="Auth-to-FAQHandler" style="stroke:#181818;stroke-width:1.0;"/><polygon fill="#181818" points="310.15,733.2,316.7338,725.8751,311.694,728.4444,309.1248,723.4046,310.15,733.2" style="stroke:#181818;stroke-width:1.0;"/></g><!--link Auth to OtherRoutes--><g id="link_Auth_OtherRoutes"><path d="M378.65,623.28 C412.67,652.56 467.8522,700.0262 501.8522,729.2862 " fill="none" id="Auth-to-OtherRoutes" style="stroke:#181818;stroke-width:1.0;"/><polygon fill="#181818" points="506.4,733.2,502.1875,724.2975,502.6102,729.9385,496.9691,730.3612,506.4,733.2" style="stroke:#181818;stroke-width:1.0;"/></g><!--link APIKey to RasaNLU--><g id="link_APIKey_RasaNLU"><path d="M734.15,623.28 C738.33,652.56 744.8215,698.0003 749.0015,727.2603 " fill="none" id="APIKey-to-RasaNLU" style="stroke:#181818;stroke-width:1.0;"/><polygon fill="#181818" points="749.85,733.2,752.537,723.7248,749.1429,728.2503,744.6174,724.8561,749.85,733.2" style="stroke:#181818;stroke-width:1.0;"/></g><!--link FAQHandler to SentenceTransformer--><g id="link_FAQHandler_SentenceTransformer"><path d="M261.49,779.23 C227.81,797.09 185.851,819.3494 152.091,837.2494 " fill="none" id="FAQHandler-to-SentenceTransformer" style="stroke:#181818;stroke-width:1.0;"/><polygon fill="#181818" points="146.79,840.06,156.6152,839.378,151.2075,837.7178,152.8677,832.3101,146.79,840.06" style="stroke:#181818;stroke-width:1.0;"/></g><!--link FAQHandler to Faiss--><g id="link_FAQHandler_Faiss"><path d="M301.74,779.23 C300.73,797.03 299.6415,815.9997 298.6215,833.8897 " fill="none" id="FAQHandler-to-Faiss" style="stroke:#181818;stroke-width:1.0;"/><polygon fill="#181818" points="298.28,839.88,302.7858,831.1223,298.5646,834.8881,294.7988,830.6669,298.28,839.88" style="stroke:#181818;stroke-width:1.0;"/></g><!--link FAQHandler to OpenAI--><g id="link_FAQHandler_OpenAI"><path d="M333.82,779.23 C358.82,797.09 389.0276,818.6726 414.0876,836.5726 " fill="none" id="FAQHandler-to-OpenAI" style="stroke:#181818;stroke-width:1.0;"/><polygon fill="#181818" points="418.97,840.06,413.9714,831.5739,414.9013,837.1538,409.3214,838.0838,418.97,840.06" style="stroke:#181818;stroke-width:1.0;"/></g><!--link RasaNLU to RasaCore--><g id="link_RasaNLU_RasaCore"><path d="M768.93,779.23 C781.82,797.03 796.3618,817.1297 809.3118,835.0197 " fill="none" id="RasaNLU-to-RasaCore" style="stroke:#181818;stroke-width:1.0;"/><polygon fill="#181818" points="812.83,839.88,810.7929,830.2441,809.8982,835.8298,804.3125,834.9351,812.83,839.88" style="stroke:#181818;stroke-width:1.0;"/></g><!--link OtherRoutes to DB--><g id="link_OtherRoutes_DB"><path d="M543.74,779.23 C553.36,797.27 564.076,817.3661 573.646,835.3061 " fill="none" id="OtherRoutes-to-DB" style="stroke:#181818;stroke-width:1.0;"/><polygon fill="#181818" points="576.47,840.6,575.7633,830.7765,574.1167,836.1884,568.7048,834.5419,576.47,840.6" style="stroke:#181818;stroke-width:1.0;"/></g><!--link DB to SQLAlchemy--><g id="link_DB_SQLAlchemy"><path d="M588,885.72 C588,903.6 588,922.95 588,941.02 " fill="none" id="DB-to-SQLAlchemy" style="stroke:#181818;stroke-width:1.0;"/><polygon fill="#181818" points="588,947.02,592,938.02,588,942.02,584,938.02,588,947.02" style="stroke:#181818;stroke-width:1.0;"/></g><!--link RasaCore to Security--><g id="link_RasaCore_Security"><path d="M831.5,840.13 C834.06,815.105 837.82,771.1775 838.8725,720.6063 C839.1356,707.9634 839.2295,694.9054 839.0932,681.6237 C839.025,674.9828 838.8992,668.286 838.7083,661.5572 C838.6128,658.1928 838.501,654.8205 838.372,651.4431 C838.3075,649.7544 838.2387,648.0644 838.1654,646.3736 C838.1288,645.5282 838.3664,650.6763 838.3275,649.8305 " fill="none" id="RasaCore-to-Security" style="stroke:#181818;stroke-width:1.0;"/><polygon fill="#181818" points="838.0522,643.8368,834.4695,653.0109,838.2817,648.8315,842.461,652.6437,838.0522,643.8368" style="stroke:#181818;stroke-width:1.0;"/><text fill="#000000" font-family="sans-serif" font-size="13" lengthAdjust="spacing" textLength="91.876" x="840" y="684.2869">Authenticated</text><text fill="#000000" font-family="sans-serif" font-size="13" lengthAdjust="spacing" textLength="60.1631" x="855.8564" y="699.4197">Requests</text></g><!--link Security to RasaActions--><g id="link_Security_RasaActions"><path d="M838.1013,492.8494 C838.2382,492.8876 838.3753,492.9261 838.5127,492.9646 C838.7875,493.0418 839.0632,493.1196 839.3398,493.198 C839.8931,493.3547 840.4499,493.514 841.0102,493.6756 C842.1307,493.999 843.2647,494.3323 844.4103,494.6755 C846.7015,495.3619 849.039,496.0882 851.4073,496.8551 C856.1439,498.3889 861.0037,500.0853 865.862,501.9506 C875.5787,505.6813 885.29,510.0875 894,515.22 C922.32,531.91 945.3749,553.9962 962.7349,572.7562 " fill="none" id="Security-to-RasaActions" style="stroke:#181818;stroke-width:1.0;"/><polygon fill="#181818" points="966.81,577.16,963.6331,567.8376,963.4141,573.4902,957.7614,573.2711,966.81,577.16" style="stroke:#181818;stroke-width:1.0;"/><text fill="#000000" font-family="sans-serif" font-size="13" lengthAdjust="spacing" textLength="50.2861" x="935" y="528.2869">Verified</text><text fill="#000000" font-family="sans-serif" font-size="13" lengthAdjust="spacing" textLength="44.7319" x="937.7771" y="543.4197">Access</text></g><!--link Security to RasaModels--><g id="link_Security_RasaModels"><path d="M838.3499,487.119 C838.8017,487.1539 839.2572,487.1893 839.7162,487.2253 C841.5522,487.3694 843.4452,487.5234 845.3912,487.688 C853.1752,488.3461 861.8069,489.1725 871.0325,490.2075 C907.935,494.3475 954.34,501.825 994,515.22 C1038.88,530.38 1081.1501,554.4913 1111.7401,573.8513 " fill="none" id="Security-to-RasaModels" style="stroke:#181818;stroke-width:1.0;"/><polygon fill="#181818" points="1116.81,577.06,1111.3442,568.867,1112.5851,574.3861,1107.066,575.6269,1116.81,577.06" style="stroke:#181818;stroke-width:1.0;"/><text fill="#000000" font-family="sans-serif" font-size="13" lengthAdjust="spacing" textLength="53.2314" x="1082.3323" y="528.2869">Secured</text><text fill="#000000" font-family="sans-serif" font-size="13" lengthAdjust="spacing" textLength="87.896" x="1065" y="543.4197">Model Access</text></g><!--SRC=[RLDDJyCm3BtdLrWxmG7jpW6fsuGO3FRHCIvSijI8YYw1f0Ccn7ydJj8iMUcbyVEBQ_kzSj4g3Oy6DPEgGXWyuHP6MdrPP03ST6ScrEvTIPGj3AwraYtA2ivkrlUpuRWiXxVbkMDtgOpUSFC6LBT4_HdAEZ1bbIZskcuFCEE7m8dG3mFx9EHYtxxQGoruMolfo0ITqkRh1MnGroyfqOAzSeiftE41DhofgwJaOcfHzfiDKopXXikgwUOebY5CMIjkE3pC7Xs50djEytFRllOxW9NQjsXyQmJxcDa- -9ORgyWad1nbCigNHjiM26lDfNbHUXTNvnC9dat1QsDWAYlyzbDGd3NuZhAOqWPyOoxiJJXM6kE856IzBMT58rvnT_0TnR1NfX2qSXChXRZ7kxS6ROuq7p96veMBYwjerV1sM3HaDAr3dVkO5u20pceiUevGvwaC8VFa5EyHHbHV-cY8YAMw-WiExep1ZdT2CttnJYXUi1Cmg1JAnayuOP8MNCBwQ3BoNpiAmpfwjXEup7uuh9xb2Z_sQ5epo9UHY4UN_Az7_488DF-nlOP4TYdYEWZ2ZJy0]--></g></svg>